<?xml version="1.0" standalone="no"?>
<!DOCTYPE svg PUBLIC "-//W3C//DTD SVG 20010904//EN"
 "http://www.w3.org/TR/2001/REC-SVG-20010904/DTD/svg10.dtd">
<svg version="1.0" xmlns="http://www.w3.org/2000/svg"
 width="120.000000pt" height="120.000000pt" viewBox="0 0 120.000000 120.000000"
 preserveAspectRatio="xMidYMid meet">
<metadata>
Created by potrace 1.14, written by Peter Selinger 2001-2017
</metadata>
<g transform="translate(0.000000,120.000000) scale(0.100000,-0.100000)"
fill="#000000" stroke="none">
<path d="M480 1193 c-212 -37 -367 -184 -426 -403 -24 -89 -24 -291 0 -380 71
-265 263 -409 546 -410 336 -1 550 232 551 601 1 300 -149 519 -401 583 -52
13 -217 19 -270 9z m269 -190 c69 -35 130 -115 157 -204 29 -97 27 -309 -4
-406 -47 -149 -144 -225 -297 -229 -66 -2 -93 2 -141 21 -104 42 -180 147
-198 275 -8 55 -8 234 -1 275 24 130 85 223 176 270 83 43 220 42 308 -2z"/>
<path d="M531 782 c-37 -20 -71 -73 -71 -110 0 -37 25 -87 54 -105 24 -16 26
-23 26 -92 0 -77 13 -105 49 -105 36 0 51 32 51 108 0 65 2 73 24 87 79 52 66
185 -21 221 -44 19 -72 18 -112 -4z"/>
</g>
</svg>
